<?xml version="1.0" encoding="UTF-8" standalone="no"?><!-- Generator: Gravit.io --><svg xmlns="http://www.w3.org/2000/svg" xmlns:xlink="http://www.w3.org/1999/xlink" style="isolation:isolate" viewBox="0 0 280 163" width="280pt" height="163pt"><defs><clipPath id="_clipPath_vTH0iqnHzo475soLGD5kYPeDyDf9TzsK"><rect width="280" height="163"/></clipPath></defs><g clip-path="url(#_clipPath_vTH0iqnHzo475soLGD5kYPeDyDf9TzsK)"><g><path d="M 18.616 0 L 261.373 0 C 271.648 0 279.991 8.342 279.991 18.617 L 280 144.383 C 280.001 154.658 271.659 163 261.384 163 L 18.627 163 C 8.352 163 0.009 154.658 0.009 144.383 L 0 18.617 C -0.001 8.342 8.341 0 18.616 0 Z" style="stroke:none;fill:#00FFE5;stroke-miterlimit:10;"/><rect x="44.455" y="116.049" width="88.47" height="4.655" transform="matrix(0.923,0.386,-0.386,0.923,52.54,-25.053)" fill="rgb(235,235,235)"/><rect x="113.682" y="111.365" width="88.47" height="2.931" transform="matrix(0.827,-0.562,0.562,0.827,-36.115,108.331)" fill="rgb(235,235,235)"/><rect x="189.263" y="105.64" width="59.652" height="1.358" transform="matrix(0.903,0.429,-0.429,0.903,66.717,-83.645)" fill="rgb(235,235,235)"/><radialGradient id="_rgradient_0" fx="0.5" fy="0.5" cx="0.5" cy="0.5" r="0.5" gradientTransform="matrix(119.333,-52,19.333,86.667,-22.694,82.063)" gradientUnits="userSpaceOnUse"><stop offset="0%" stop-opacity="1" style="stop-color:rgb(64,64,255)"/><stop offset="100%" stop-opacity="1" style="stop-color:rgb(0,0,0)"/></radialGradient><circle vector-effect="non-scaling-stroke" cx="46.63964933934648" cy="99.39606676705074" r="19.999999999999996" fill="url(#_rgradient_0)"/><text transform="matrix(1,0,0,1,52.098,35.418)" style="font-family:'Kristen ITC';font-weight:400;font-size:24px;font-style:normal;fill:#ffffff;stroke:none;">LuisFlahan4051 </text><text transform="matrix(1,0,0,1,104.568,68.055)" style="font-family:'Kristen ITC';font-weight:400;font-size:24px;font-style:normal;fill:#000dff;stroke:none;">A</text><text transform="matrix(1,0,0,1,126.049,68.055)" style="font-family:'Kristen ITC';font-weight:400;font-size:24px;font-style:normal;fill:#ff00c8;stroke:none;">P</text><text transform="matrix(1,0,0,1,142.877,68.055)" style="font-family:'Kristen ITC';font-weight:400;font-size:24px;font-style:normal;fill:#ffff00;stroke:none;">P</text><text transform="matrix(1,0,0,1,159.705,68.055)" style="font-family:'Kristen ITC';font-weight:400;font-size:24px;font-style:normal;fill:#00c803;stroke:none;">S</text><radialGradient id="_rgradient_1" fx="0.5" fy="0.5" cx="0.5" cy="0.5" r="0.5" gradientTransform="matrix(-21.042,-95.334,66.576,-1.716,102.106,182.923)" gradientUnits="userSpaceOnUse"><stop offset="0%" stop-opacity="1" style="stop-color:rgb(255,0,0)"/><stop offset="100%" stop-opacity="1" style="stop-color:rgb(0,0,0)"/></radialGradient><path d=" M 121.985 149.118 C 113.861 147.524 108.56 139.635 110.153 131.511 C 111.747 123.387 119.636 118.085 127.76 119.679 C 135.884 121.273 141.186 129.162 139.592 137.286 C 137.999 145.41 130.109 150.711 121.985 149.118 Z " fill="url(#_rgradient_1)"/><radialGradient id="_rgradient_2" fx="0.5" fy="0.5" cx="0.5" cy="0.5" r="0.5" gradientTransform="matrix(59.667,-26,6.667,61.333,155.835,73.833)" gradientUnits="userSpaceOnUse"><stop offset="0%" stop-opacity="1" style="stop-color:rgb(0,255,0)"/><stop offset="100%" stop-opacity="1" style="stop-color:rgb(0,0,0)"/></radialGradient><circle vector-effect="non-scaling-stroke" cx="189.00155459924173" cy="91.5000028988176" r="9.999999999999972" fill="url(#_rgradient_2)"/><radialGradient id="_rgradient_3" fx="0.5" fy="0.5" cx="0.5" cy="0.5" r="0.5" gradientTransform="matrix(54.506,-21.417,10.369,40.917,215.673,109.646)" gradientUnits="userSpaceOnUse"><stop offset="0%" stop-opacity="1" style="stop-color:rgb(255,255,0)"/><stop offset="100%" stop-opacity="1" style="stop-color:rgb(6,6,0)"/><stop offset="100%" stop-opacity="1" style="stop-color:rgb(0,0,0)"/></radialGradient><circle vector-effect="non-scaling-stroke" cx="248.11045073965738" cy="119.39606676705077" r="5" fill="url(#_rgradient_3)"/></g></g></svg>